<?xml version="1.0" encoding="utf-8"?>
<!-- Generator: Adobe Illustrator 17.1.0, SVG Export Plug-In . SVG Version: 6.00 Build 0)  -->
<!DOCTYPE svg PUBLIC "-//W3C//DTD SVG 1.1//EN" "http://www.w3.org/Graphics/SVG/1.1/DTD/svg11.dtd">
<svg version="1.1" id="Layer_1" xmlns="http://www.w3.org/2000/svg" xmlns:xlink="http://www.w3.org/1999/xlink" x="0px" y="0px"
	 viewBox="0 183.55 841.89 924" enable-background="new 0 183.55 841.89 924" xml:space="preserve">
<g>
	<path fill="#010101" d="M756.599,886.581L543.734,643.325l212.866-243.266c36.17-36.18,36.17-94.832,0-131.012
		c-36.201-36.17-94.842-36.149-131.012,0.01L420.922,502.966L216.266,269.057c-36.17-36.17-94.811-36.18-131.012-0.01
		c-36.17,36.18-36.17,94.832,0,131.012L298.11,643.325L85.254,886.581c-36.17,36.17-36.17,94.811-0.01,131.002
		c36.18,36.18,94.832,36.18,131.022,0l204.666-233.919l204.655,233.919c36.201,36.18,94.842,36.18,131.022,0
		C792.769,981.392,792.769,922.74,756.599,886.581z"/>
</g>
</svg>
