<svg version="1.1" viewBox="0 0 295 65" enable-background="new 0 0 295 65" xmlns="http://www.w3.org/2000/svg" xmlns:xlink="http://www.w3.org/1999/xlink" xml:space="preserve" style="fill-rule:evenodd;clip-rule:evenodd;stroke-linejoin:round;stroke-miterlimit:1.41421;"><style type="text/css">@media screen and (max-width: 200px) {#Layer2 {display:none;}}</style><g><g id="Layer1"><g transform="matrix(0.114823,-1.64604e-18,-1.64604e-18,0.121544,-66.7767,-70.9931)"><path d="M648.545,608.019c0,0 -46.116,-0.106 -46.116,57.112c0,3.732 -0.013,14.768 -0.013,30.37c4.393,52.361 15.138,103.347 33.478,150.495c25.857,-40.797 56.782,-77.862 94.548,-110.149c74.751,-64.02 175.426,-108.349 312.013,-127.828ZM602.31,907.144c7.463,-15.469 15.27,-30.66 23.858,-45.269c-9.845,-23.515 -17.652,-47.995 -23.819,-73.058c-0.026,40.823 -0.039,84.293 -0.039,118.327" style="fill:#b2bb1d;fill-rule:nonzero;"/><path d="M692.379,970.658c-17.97,-21.04 -33.36,-43.826 -46.5,-67.844c-16.726,31.679 -30.951,65.753 -43.443,101.76l0,96.281l312.239,0.555c-97.38,-23.382 -170.358,-69.855 -222.296,-130.752M1093.99,639.246c-156.265,14.886 -262.96,59.507 -339.405,124.81c-41.008,35.093 -73.521,76.485 -100.172,123.223c59.944,116.368 174.209,201.851 364.865,214.343l18.552,0.04c0,0 58.595,1.958 58.595,-63.187l0,-399.706c-0.781,0.186 -1.589,0.384 -2.435,0.477" style="fill:#00446b;fill-rule:nonzero;"/></g></g><g id="Layer2"><g transform="matrix(0.114823,-1.64604e-18,-1.64604e-18,0.121544,-66.7767,-70.9931)"><path d="M1285.32,665.69c-35.278,0 -47.797,38.6 -47.797,73.997c0,34.882 11.38,73.243 47.797,73.243c36.641,0 47.558,-38.361 47.558,-73.243c0,-35.397 -12.293,-73.997 -47.558,-73.997M1285.32,828.518c-47.797,0 -69.181,-39.592 -69.181,-88.341c0,-48.26 21.384,-88.355 69.181,-88.355c47.797,0 68.956,40.095 68.956,88.355c0,48.749 -21.159,88.341 -68.956,88.341" style="fill:#00446b;fill-rule:nonzero;"/></g><g transform="matrix(0.114823,-1.64604e-18,-1.64604e-18,0.121544,-66.7767,-70.9931)"><path d="M1413.71,703.799l0,121.503l-19.346,0l0,-121.503l-19.796,0l0,-11.869l19.796,0l0,-19.307c0,-24.256 14.344,-41.829 42.556,-41.829c2.051,0 4.552,0.252 4.552,0.252l0,12.372l-2.276,0c-13.418,0 -25.486,8.654 -25.486,26.969l0,21.543l27.762,0l0,11.869Z" style="fill:#00446b;fill-rule:nonzero;"/></g><g transform="matrix(0.114823,-1.64604e-18,-1.64604e-18,0.121544,-66.7767,-70.9931)"><path d="M1493.61,703.799l0,121.503l-19.346,0l0,-121.503l-19.796,0l0,-11.869l19.796,0l0,-19.307c0,-24.256 14.344,-41.829 42.569,-41.829c2.038,0 4.539,0.252 4.539,0.252l0,12.372l-2.263,0c-13.431,0 -25.499,8.654 -25.499,26.969l0,21.543l27.762,0l0,11.869Z" style="fill:#00446b;fill-rule:nonzero;"/></g><g transform="matrix(0.114823,-1.64604e-18,-1.64604e-18,0.121544,-66.7767,-70.9931)"><path d="M1543.47,691.927l19.571,0l0,133.385l-19.571,0ZM1553.26,666.44c-6.828,0 -12.294,-5.213 -12.294,-11.882c0,-6.683 5.466,-12.122 12.294,-12.122c6.828,0 12.28,5.439 12.28,12.122c0,6.669 -5.452,11.882 -12.28,11.882" style="fill:#00446b;fill-rule:nonzero;"/></g><g transform="matrix(0.114823,-1.64604e-18,-1.64604e-18,0.121544,-66.7767,-70.9931)"><path d="M1646.36,828.518c-31.64,0 -56.001,-27.219 -56.001,-70.027c0,-43.562 24.361,-69.789 56.676,-69.789c16.143,0 26.849,4.459 32.539,9.157l-5.016,11.883c-4.313,-3.229 -12.505,-7.186 -23.196,-7.186c-27.087,0 -40.969,23.502 -40.969,55.194c0,32.658 15.933,55.935 40.281,55.935c10.017,0 18.208,-3.481 23.673,-7.199l5.227,12.875c-5.69,4.698 -17.071,9.157 -33.214,9.157" style="fill:#00446b;fill-rule:nonzero;"/></g><g transform="matrix(0.114823,-1.64604e-18,-1.64604e-18,0.121544,-66.7767,-70.9931)"><path d="M1749.92,701.322c-21.623,0 -39.831,16.819 -39.606,54.188l75.783,-10.387c0,-30.939 -14.781,-43.801 -36.177,-43.801M1711.21,766.652c2.514,31.428 19.809,47.267 46.896,47.267c16.396,0 28.901,-4.208 36.179,-8.164l5.703,13.616c-8.429,4.697 -24.136,9.144 -43.258,9.144c-37.541,0 -64.165,-22.271 -64.165,-70.279c0,-45.772 24.573,-69.538 58.025,-69.538c33.916,0 54.625,20.802 54.625,65.33Z" style="fill:#00446b;fill-rule:nonzero;"/></g><g transform="matrix(0.114823,-1.64604e-18,-1.64604e-18,0.121544,-66.7767,-70.9931)"><path d="M1929.06,703.799l0,121.503l-19.347,0l0,-121.503l-19.795,0l0,-11.869l19.795,0l0,-19.307c0,-24.256 14.344,-41.829 42.57,-41.829c2.024,0 4.539,0.252 4.539,0.252l0,12.372l-2.276,0c-13.432,0 -25.486,8.654 -25.486,26.969l0,21.543l27.762,0l0,11.869Z" style="fill:#00446b;fill-rule:nonzero;"/></g><g transform="matrix(0.114823,-1.64604e-18,-1.64604e-18,0.121544,-66.7767,-70.9931)"><path d="M2027.6,701.815c-29.112,0 -37.542,29.456 -37.542,56.927c0,27.458 9.104,55.67 37.542,55.67c29.138,0 37.554,-28.212 37.554,-55.67c0,-27.471 -8.416,-56.927 -37.554,-56.927M2027.6,828.518c-39.368,0 -57.337,-30.435 -57.337,-69.776c0,-39.354 17.969,-70.041 57.337,-70.041c39.394,0 57.151,30.687 57.151,70.041c0,39.341 -17.757,69.776 -57.151,69.776" style="fill:#00446b;fill-rule:nonzero;"/></g><g transform="matrix(0.114823,-1.64604e-18,-1.64604e-18,0.121544,-66.7767,-70.9931)"><path d="M2168.74,704.295c-12.293,-3.215 -30.29,-2.726 -38.706,2.475l0,118.538l-19.558,0l0,-127.444c14.093,-5.941 28.226,-9.157 53.236,-9.157c3.426,0 7.978,0 10.03,0.238Z" style="fill:#00446b;fill-rule:nonzero;"/></g><g transform="matrix(0.114823,-1.64604e-18,-1.64604e-18,0.121544,-66.7767,-70.9931)"><path d="M1329.25,1095.23l-75.559,-116.58c-5.69,-8.654 -9.792,-17.295 -9.792,-17.295l-0.45,0c0,0 0.675,9.885 0.675,20.273l0,113.602l-24.798,0l0,-170.265l27.987,0l71.695,109.633c6.378,9.647 10.017,17.573 10.017,17.573l0.45,0c0,0 -0.913,-9.66 -0.913,-19.809l0,-107.397l25.036,0l0,170.265Z" style="fill:#00446b;fill-rule:nonzero;"/></g><g transform="matrix(0.114823,-1.64604e-18,-1.64604e-18,0.121544,-66.7767,-70.9931)"><path d="M1459.68,1021.47c-33.003,3.48 -55.075,9.66 -55.075,35.411c0,18.036 12.744,25.724 32.765,25.724c9.342,0 17.308,-1.985 22.31,-4.459ZM1435.1,1098.69c-39.129,0 -57.563,-15.601 -57.563,-41.101c0,-35.86 37.542,-45.533 82.149,-49.476l0,-7.662c0,-18.328 -12.518,-23.779 -30.727,-23.779c-12.967,0 -27.762,3.718 -36.178,7.701l-6.603,-16.342c9.329,-3.957 26.85,-9.66 48.009,-9.66c29.588,0 52.348,12.121 52.348,46.274l0,84.399c-11.38,5.703 -29.35,9.646 -51.435,9.646" style="fill:#00446b;fill-rule:nonzero;"/></g><g transform="matrix(0.114823,-1.64604e-18,-1.64604e-18,0.121544,-66.7767,-70.9931)"><path d="M1563.92,1098.18c-27.987,0 -38.693,-18.076 -38.693,-36.125l0,-82.903l-18.658,0l0,-17.308l18.658,0l0,-29.946l28.451,-7.926l0,37.872l25.949,0l0,17.308l-25.949,0l0,81.421c0,10.388 6.139,18.539 18.208,18.539c2.726,0 5.015,-0.476 7.741,-1.218l0,17.56c-2.726,1.257 -8.429,2.726 -15.707,2.726" style="fill:#00446b;fill-rule:nonzero;"/></g><g transform="matrix(0.114823,-1.64604e-18,-1.64604e-18,0.121544,-66.7767,-70.9931)"><path d="M1601.96,961.847l28.662,0l0,133.385l-28.662,0ZM1616.28,938.822c-9.104,0 -16.607,-6.669 -16.607,-14.834c0,-8.165 7.503,-14.86 16.607,-14.86c9.104,0 16.62,6.695 16.62,14.86c0,8.165 -7.516,14.834 -16.62,14.834" style="fill:#00446b;fill-rule:nonzero;"/></g><g transform="matrix(0.114823,-1.64604e-18,-1.64604e-18,0.121544,-66.7767,-70.9931)"><path d="M1716.19,976.673c-24.574,0 -31.865,25.751 -31.865,51.74c0,25.962 7.741,50.708 31.865,50.708c24.586,0 31.864,-24.746 31.864,-50.708c0,-25.989 -7.278,-51.74 -31.864,-51.74M1716.19,1098.69c-40.73,0 -60.99,-30.197 -60.99,-70.041c0,-39.83 20.26,-70.279 60.99,-70.279c40.729,0 60.764,30.449 60.764,70.279c0,39.844 -20.035,70.041 -60.764,70.041" style="fill:#00446b;fill-rule:nonzero;"/></g><g transform="matrix(0.114823,-1.64604e-18,-1.64604e-18,0.121544,-66.7767,-70.9931)"><path d="M1882.82,1095.23l0,-95.288c0,-17.084 -14.569,-23.528 -30.952,-23.528c-8.879,0 -17.533,1.747 -22.998,3.97l0,114.846l-28.437,0l0,-127.205c12.518,-5.439 32.089,-9.647 53.037,-9.647c34.802,0 58.025,11.856 58.025,41.074l0,95.778Z" style="fill:#00446b;fill-rule:nonzero;"/></g><g transform="matrix(0.114823,-1.64604e-18,-1.64604e-18,0.121544,-66.7767,-70.9931)"><path d="M2016.19,1021.47c-33.002,3.48 -55.075,9.66 -55.075,35.411c0,18.036 12.756,25.724 32.791,25.724c9.329,0 17.281,-1.985 22.284,-4.459ZM1991.62,1098.69c-39.141,0 -57.575,-15.601 -57.575,-41.101c0,-35.86 37.554,-45.533 82.149,-49.476l0,-7.662c0,-18.328 -12.492,-23.779 -30.7,-23.779c-12.968,0 -27.789,3.718 -36.192,7.701l-6.603,-16.342c9.329,-3.957 26.837,-9.66 48.009,-9.66c29.588,0 52.348,12.121 52.348,46.274l0,84.399c-11.38,5.703 -29.363,9.646 -51.436,9.646" style="fill:#00446b;fill-rule:nonzero;"/></g><g transform="matrix(0.114823,-1.64604e-18,-1.64604e-18,0.121544,-66.7767,-70.9931)"><rect x="2072.44" y="900.96" width="28.45" height="194.269" style="fill:#00446b;"/></g><g transform="matrix(0.114823,-1.64604e-18,-1.64604e-18,0.121544,-66.7767,-70.9931)"><path d="M2236.32,1098.69c-20.485,0 -37.092,-4.486 -46.407,-9.646l7.953,-20.802c6.828,3.956 19.571,8.164 32.763,8.164c19.797,0 33.916,-11.618 33.916,-28.45c0,-37.382 -70.795,-22.998 -70.795,-75.969c0,-26.995 21.861,-50.509 56.45,-50.509c18.434,0 32.99,4.975 40.969,9.673l-7.278,18.553c-6.154,-3.706 -17.983,-7.927 -29.813,-7.927c-18.433,0 -30.501,11.142 -30.501,26.995c0,36.614 72.369,20.762 72.369,77.173c0,30.21 -24.798,52.745 -59.626,52.745" style="fill:#00446b;fill-rule:nonzero;"/></g><g transform="matrix(0.114823,-1.64604e-18,-1.64604e-18,0.121544,-66.7767,-70.9931)"><path d="M2368.13,1098.18c-27.988,0 -38.706,-18.076 -38.706,-36.125l0,-82.903l-18.645,0l0,-17.308l18.645,0l0,-29.946l28.45,-7.926l0,37.872l25.95,0l0,17.308l-25.95,0l0,81.421c0,10.388 6.153,18.539 18.208,18.539c2.74,0 5.016,-0.476 7.742,-1.218l0,17.56c-2.726,1.257 -8.416,2.726 -15.694,2.726" style="fill:#00446b;fill-rule:nonzero;"/></g><g transform="matrix(0.114823,-1.64604e-18,-1.64604e-18,0.121544,-66.7767,-70.9931)"><path d="M2481.47,1021.47c-33.003,3.48 -55.075,9.66 -55.075,35.411c0,18.036 12.756,25.724 32.764,25.724c9.342,0 17.308,-1.985 22.311,-4.459ZM2456.88,1098.69c-39.155,0 -57.562,-15.601 -57.562,-41.101c0,-35.86 37.554,-45.533 82.149,-49.476l0,-7.662c0,-18.328 -12.519,-23.779 -30.727,-23.779c-12.967,0 -27.775,3.718 -36.191,7.701l-6.59,-16.342c9.356,-3.957 26.85,-9.66 48.021,-9.66c29.575,0 52.349,12.121 52.349,46.274l0,84.399c-11.394,5.703 -29.376,9.646 -51.449,9.646" style="fill:#00446b;fill-rule:nonzero;"/></g><g transform="matrix(0.114823,-1.64604e-18,-1.64604e-18,0.121544,-66.7767,-70.9931)"><path d="M2585.72,1098.18c-27.988,0 -38.706,-18.076 -38.706,-36.125l0,-82.903l-18.645,0l0,-17.308l18.645,0l0,-29.946l28.45,-7.926l0,37.872l25.95,0l0,17.308l-25.95,0l0,81.421c0,10.388 6.153,18.539 18.208,18.539c2.726,0 5.016,-0.476 7.742,-1.218l0,17.56c-2.726,1.257 -8.416,2.726 -15.694,2.726" style="fill:#00446b;fill-rule:nonzero;"/></g><g transform="matrix(0.114823,-1.64604e-18,-1.64604e-18,0.121544,-66.7767,-70.9931)"><path d="M2623.72,961.847l28.689,0l0,133.385l-28.689,0ZM2638.05,938.822c-9.091,0 -16.594,-6.669 -16.594,-14.834c0,-8.165 7.503,-14.86 16.594,-14.86c9.118,0 16.634,6.695 16.634,14.86c0,8.165 -7.516,14.834 -16.634,14.834" style="fill:#00446b;fill-rule:nonzero;"/></g><g transform="matrix(0.114823,-1.64604e-18,-1.64604e-18,0.121544,-66.7767,-70.9931)"><path d="M2714.54,1098.69c-16.594,0 -32.314,-4.697 -40.267,-9.646l7.503,-18.328c5.69,3.957 17.07,7.913 29.125,7.913c14.582,0 26.187,-9.395 26.187,-20.762c0,-31.692 -58.488,-16.858 -58.488,-60.394c0,-19.809 17.745,-39.102 46.645,-39.102c16.382,0 28.463,4.221 37.541,9.66l-7.49,16.554c-4.353,-2.951 -13.206,-7.662 -24.348,-7.662c-14.794,0 -23.911,8.906 -23.911,19.055c0,29.707 59.626,16.581 59.626,61.135c0,21.278 -20.246,41.577 -52.123,41.577" style="fill:#00446b;fill-rule:nonzero;"/></g><g transform="matrix(0.114823,-1.64604e-18,-1.64604e-18,0.121544,-66.7767,-70.9931)"><path d="M2839.1,1098.18c-27.988,0 -38.706,-18.076 -38.706,-36.125l0,-82.903l-18.672,0l0,-17.308l18.672,0l0,-29.946l28.463,-7.926l0,37.872l25.937,0l0,17.308l-25.937,0l0,81.421c0,10.388 6.127,18.539 18.209,18.539c2.712,0 5.002,-0.476 7.728,-1.218l0,17.56c-2.726,1.257 -8.43,2.726 -15.694,2.726" style="fill:#00446b;fill-rule:nonzero;"/></g><g transform="matrix(0.114823,-1.64604e-18,-1.64604e-18,0.121544,-66.7767,-70.9931)"><path d="M2877.1,961.847l28.689,0l0,133.385l-28.689,0ZM2891.43,938.822c-9.091,0 -16.594,-6.669 -16.594,-14.834c0,-8.165 7.503,-14.86 16.594,-14.86c9.117,0 16.647,6.695 16.647,14.86c0,8.165 -7.53,14.834 -16.647,14.834" style="fill:#00446b;fill-rule:nonzero;"/></g><g transform="matrix(0.114823,-1.64604e-18,-1.64604e-18,0.121544,-66.7767,-70.9931)"><path d="M2988.18,1098.69c-32.778,0 -57.814,-26.743 -57.814,-70.278c0,-44.039 25.738,-70.041 58.039,-70.041c16.619,0 27.762,4.697 34.126,9.66l-6.364,16.064c-4.089,-2.964 -11.381,-6.431 -20.921,-6.431c-23.223,0 -35.292,20.048 -35.292,49.993c0,30.462 13.895,50.483 34.816,50.483c9.117,0 15.958,-3.229 20.933,-6.683l7.067,17.587c-5.915,4.949 -17.52,9.646 -34.59,9.646" style="fill:#00446b;fill-rule:nonzero;"/></g><g transform="matrix(0.114823,-1.64604e-18,-1.64604e-18,0.121544,-66.7767,-70.9931)"><path d="M3075.82,1098.69c-16.607,0 -32.341,-4.697 -40.294,-9.646l7.516,-18.328c5.677,3.957 17.057,7.913 29.126,7.913c14.555,0 26.173,-9.395 26.173,-20.762c0,-31.692 -58.475,-16.858 -58.475,-60.394c0,-19.809 17.745,-39.102 46.632,-39.102c16.409,0 28.464,4.221 37.568,9.66l-7.529,16.554c-4.301,-2.951 -13.194,-7.662 -24.335,-7.662c-14.794,0 -23.912,8.906 -23.912,19.055c0,29.707 59.64,16.581 59.64,61.135c0,21.278 -20.246,41.577 -52.11,41.577" style="fill:#00446b;fill-rule:nonzero;"/></g></g></g></svg>
